<mxfile host="app.diagrams.net" agent="Mozilla/5.0 (Macintosh; Intel Mac OS X 10_15_7) AppleWebKit/537.36 (KHTML, like Gecko) Chrome/128.0.0.0 Safari/537.36" version="24.7.10">
  <diagram id="WI9T0HZ2pTsCkuznbFz-" name="Page-1">
    <mxGraphModel dx="977" dy="619" grid="1" gridSize="10" guides="1" tooltips="1" connect="1" arrows="1" fold="1" page="1" pageScale="1" pageWidth="1169" pageHeight="827" background="#000000" math="0" shadow="0">
      <root>
        <mxCell id="0" />
        <mxCell id="1" parent="0" />
        <mxCell id="7zQmasY0ehKp1lRE09yj-10" value="" style="edgeStyle=orthogonalEdgeStyle;rounded=0;orthogonalLoop=1;jettySize=auto;html=1;strokeColor=#FFFFFF;" edge="1" parent="1" source="7zQmasY0ehKp1lRE09yj-8" target="7zQmasY0ehKp1lRE09yj-1">
          <mxGeometry relative="1" as="geometry" />
        </mxCell>
        <mxCell id="7zQmasY0ehKp1lRE09yj-13" value="기능 동작" style="edgeLabel;html=1;align=center;verticalAlign=middle;resizable=0;points=[];" vertex="1" connectable="0" parent="7zQmasY0ehKp1lRE09yj-10">
          <mxGeometry relative="1" as="geometry">
            <mxPoint y="-11" as="offset" />
          </mxGeometry>
        </mxCell>
        <mxCell id="7zQmasY0ehKp1lRE09yj-8" value="&lt;h1 style=&quot;margin-top: 0px;&quot;&gt;Client&lt;/h1&gt;" style="text;html=1;whiteSpace=wrap;overflow=hidden;rounded=0;fillColor=#1ba1e2;fontColor=#ffffff;strokeColor=#006EAF;opacity=90;align=center;" vertex="1" parent="1">
          <mxGeometry x="10" y="175.42" width="200" height="180" as="geometry" />
        </mxCell>
        <mxCell id="jJKIp3TA7QiN44hz8N-b-30" value="" style="shape=image;verticalLabelPosition=bottom;labelBackgroundColor=default;verticalAlign=top;aspect=fixed;imageAspect=0;image=data:image/png,iVBORw0KGgoAAAANSUhEUgAAAGQAAABkCAYAAABw4pVUAAAACXBIWXMAAAsTAAALEwEAmpwYAAACAElEQVR4nO3dTUrDUBiF4bMAsehYxx3pOnRVgqArEPdgKXQxIujQn2EV24k4igSSSajpd21+zpX3gTvyRprvbZOMWgkAAAAAAADI36Gka0lPkr4lFSztMoNyho+SriQdpMY4lfRGAPX1JnyVdBKNUdZ7IYb6viI8S5pEglwSQ0Ndni8iQR4aB91I2ot+vPCrcoa3jdneK+CrcdB+5CCETBqzLWe9VfNjhW4lz5cg/co2SJH5ip5X8iDGUmS+oueVPIhNjiXNJa2rtZA0bfmfqftlMNBsgpTDfd+w76P62677a2MPNJsg85YXMetg/59f+MhGC7JuGfCqg/01ggQH0Tbgzw721wgSHMSiZcB3HeyvESQ4iGl1Q27uW0o66mB/rch8DXYPUfV0NKvuAavqnd423NT9MhhoVkGGUGS+oueVPIixFJmv6HklDwLdIogZgpghyH8LwtIoN3+CyOtpjCAiCJdD9XHTQRKesswQxAxBzBDEDEHMEMQMQcwQxAxBzBDEDEHMEMQMQcwQxAxBzBDEDEHMEMQMQcwQxAxBzBDEDEHMEMQMQcwQxAxBzBDEDEHMEMQMQcwQxAxBzBDEDEHMEMQMQcwQxAxBzBDEDEHMEMQMQczwbUDy/pKb5IIsjRuk/NFDImiQGZS/F7nVOVE0VIyzSBAAAAAAAABAhn4AFKI8fop3OTYAAAAASUVORK5CYII=;" parent="1" vertex="1">
          <mxGeometry x="20" y="215.42" width="100" height="100" as="geometry" />
        </mxCell>
        <mxCell id="fR_icHqYHlOfDnI4W0Dl-3" value="" style="shape=image;verticalLabelPosition=bottom;labelBackgroundColor=default;verticalAlign=top;aspect=fixed;imageAspect=0;image=data:image/png,iVBORw0KGgoAAAANSUhEUgAAAGQAAABkCAYAAABw4pVUAAAACXBIWXMAAAsTAAALEwEAmpwYAAACoklEQVR4nO3dTUojURiF4TOJM5Nt2Om9KK7KNBgVXIxIL8PfBag9bzOLcJrAHV0V1Erjd17qQA2F562q5GamNG7cuFr7KelU0rWklSQXu1bNdiJpLvB2JJ1Leilw0/3Ba2M9kzQR8GH8LnCD/cXrkvZQzgvcVA+8Np8UzJnRf03dSNqXtKt625V0IOm2M68l/RBgp288jKnqbybprrMvBdhNF7V5+1J22NmvBNjfLqri19R7m3b2TUv8+sNxyC+1X5KePnEQP0patL/9bn+ZbStoMeAX0qKAv8y2FfQ04IH8KeAvs20FPQ54IA8F/GVW4SvrqIAfeagvPvlJGQ/1//hAvmvpflyQw/24IIf7cUEO9+OCHO7HBTncjwtyuB8X5HA/LsjhflyQw/24IIf7cUEO9+OCHO7HBTncjwtyuB8X5HA/LsjhflyQw/24IIf7cUEO9+OCHO7HBTncjwtyuB8X5HA/LsjhflyQw/24IIf7cUEO9+OCHO7HBTncjwtyuB8X5HA/LsjhflyQw/24IIf7cUEO9+OCHO7HBTncjwtyuB8X5HA/LsjhflyQw/24IIf7cUEO9+OCHO7HBTncjwtyuB8X5HA/LsjhflyQw/24IIf7cUEO9+OCHO7HBTncjwtyuB8X5HA/LsjhflyQw/24IIf7cUEO9+OCHO7HBTncjwtyuB8X5HA/LsjhflyQw/24IIf7cUEO9+OCHO7HBTncjwtyuB8X5HA/LsjhflyQw/2vNv6D+2K77t6wA+XssLNfCbCTLupW0kz1N5N039mPBdhc0ksXdtfevqnqbdps/cNYS9oTZGdvHI5p11KgTSRdFrip/uJ10RpQm7RPyrrADfYHr3U7A3EPoz9Tlu0Xy3OBm+7uem62Y9KZMW6cEPsHmu+InSpN+5wAAAAASUVORK5CYII=;" parent="1" vertex="1">
          <mxGeometry x="110" y="215.42" width="100" height="100" as="geometry" />
        </mxCell>
        <mxCell id="7zQmasY0ehKp1lRE09yj-5" value="" style="edgeStyle=orthogonalEdgeStyle;rounded=0;orthogonalLoop=1;jettySize=auto;html=1;strokeColor=#FFFFFF;" edge="1" parent="1" source="7zQmasY0ehKp1lRE09yj-1" target="7zQmasY0ehKp1lRE09yj-4">
          <mxGeometry relative="1" as="geometry">
            <Array as="points">
              <mxPoint x="540" y="245" />
              <mxPoint x="540" y="250" />
            </Array>
          </mxGeometry>
        </mxCell>
        <mxCell id="7zQmasY0ehKp1lRE09yj-7" value="발송 요청" style="edgeLabel;html=1;align=center;verticalAlign=middle;resizable=0;points=[];" vertex="1" connectable="0" parent="7zQmasY0ehKp1lRE09yj-5">
          <mxGeometry relative="1" as="geometry">
            <mxPoint y="-11" as="offset" />
          </mxGeometry>
        </mxCell>
        <mxCell id="7zQmasY0ehKp1lRE09yj-11" style="edgeStyle=orthogonalEdgeStyle;rounded=0;orthogonalLoop=1;jettySize=auto;html=1;exitX=0;exitY=0.75;exitDx=0;exitDy=0;entryX=0.996;entryY=0.539;entryDx=0;entryDy=0;entryPerimeter=0;strokeColor=#FFFFFF;" edge="1" parent="1" source="jJKIp3TA7QiN44hz8N-b-6" target="7zQmasY0ehKp1lRE09yj-1">
          <mxGeometry relative="1" as="geometry" />
        </mxCell>
        <mxCell id="7zQmasY0ehKp1lRE09yj-12" value="조회, 수정" style="edgeLabel;html=1;align=center;verticalAlign=middle;resizable=0;points=[];" vertex="1" connectable="0" parent="7zQmasY0ehKp1lRE09yj-11">
          <mxGeometry relative="1" as="geometry">
            <mxPoint y="11" as="offset" />
          </mxGeometry>
        </mxCell>
        <mxCell id="7zQmasY0ehKp1lRE09yj-14" value="" style="group;" vertex="1" connectable="0" parent="1">
          <mxGeometry x="820" y="50.84" width="440" height="429.15999999999997" as="geometry" />
        </mxCell>
        <mxCell id="7zQmasY0ehKp1lRE09yj-4" value="&lt;h1 style=&quot;margin-top: 0px;&quot;&gt;Notification System&lt;/h1&gt;" style="text;html=1;whiteSpace=wrap;overflow=hidden;rounded=0;fillColor=#bac8d3;strokeColor=#23445d;opacity=90;align=center;" vertex="1" parent="7zQmasY0ehKp1lRE09yj-14">
          <mxGeometry width="440" height="429.16" as="geometry" />
        </mxCell>
        <mxCell id="jJKIp3TA7QiN44hz8N-b-15" value="" style="edgeStyle=orthogonalEdgeStyle;rounded=0;orthogonalLoop=1;jettySize=auto;html=1;strokeColor=#FFFFFF;" parent="7zQmasY0ehKp1lRE09yj-14" source="jJKIp3TA7QiN44hz8N-b-2" target="jJKIp3TA7QiN44hz8N-b-9" edge="1">
          <mxGeometry relative="1" as="geometry" />
        </mxCell>
        <mxCell id="jJKIp3TA7QiN44hz8N-b-2" value="RabbitMQ" style="shape=image;verticalLabelPosition=bottom;labelBackgroundColor=#ffffff;verticalAlign=top;aspect=fixed;imageAspect=0;image=data:image/svg+xml,PHN2ZyB4bWxuczpkYz0iaHR0cDovL3B1cmwub3JnL2RjL2VsZW1lbnRzLzEuMS8iIHhtbG5zOmNjPSJodHRwOi8vY3JlYXRpdmVjb21tb25zLm9yZy9ucyMiIHhtbG5zOnJkZj0iaHR0cDovL3d3dy53My5vcmcvMTk5OS8wMi8yMi1yZGYtc3ludGF4LW5zIyIgeG1sbnM6c3ZnPSJodHRwOi8vd3d3LnczLm9yZy8yMDAwL3N2ZyIgeG1sbnM9Imh0dHA6Ly93d3cudzMub3JnLzIwMDAvc3ZnIiB4bWxuczp4bGluaz0iaHR0cDovL3d3dy53My5vcmcvMTk5OS94bGluayIgeG1sbnM6c29kaXBvZGk9Imh0dHA6Ly9zb2RpcG9kaS5zb3VyY2Vmb3JnZS5uZXQvRFREL3NvZGlwb2RpLTAuZHRkIiB4bWxuczppbmtzY2FwZT0iaHR0cDovL3d3dy5pbmtzY2FwZS5vcmcvbmFtZXNwYWNlcy9pbmtzY2FwZSIgdmVyc2lvbj0iMS4xIiBpZD0iTGF5ZXJfMSIgeD0iMHB4IiB5PSIwcHgiIHZpZXdCb3g9IjAgMCAzNS45Mzk5OTUgMzUuOTUwMDAxIiB4bWw6c3BhY2U9InByZXNlcnZlIiBzb2RpcG9kaTpkb2NuYW1lPSJzYXBfc2VfcmFiYml0bXEuc3ZnIiB3aWR0aD0iMzUuOTM5OTk1IiBoZWlnaHQ9IjM1Ljk1MDAwMSIgaW5rc2NhcGU6dmVyc2lvbj0iMC45Mi4zICgyNDA1NTQ2LCAyMDE4LTAzLTExKSI+PG1ldGFkYXRhIGlkPSJtZXRhZGF0YTYwODc3Ij48cmRmOlJERj48Y2M6V29yayByZGY6YWJvdXQ9IiI+PGRjOmZvcm1hdD5pbWFnZS9zdmcreG1sPC9kYzpmb3JtYXQ+PGRjOnR5cGUgcmRmOnJlc291cmNlPSJodHRwOi8vcHVybC5vcmcvZGMvZGNtaXR5cGUvU3RpbGxJbWFnZSIvPjxkYzp0aXRsZS8+PC9jYzpXb3JrPjwvcmRmOlJERj48L21ldGFkYXRhPjxkZWZzIGlkPSJkZWZzNjA4NzUiLz48c29kaXBvZGk6bmFtZWR2aWV3IHBhZ2Vjb2xvcj0iI2ZmZmZmZiIgYm9yZGVyY29sb3I9IiM2NjY2NjYiIGJvcmRlcm9wYWNpdHk9IjEiIG9iamVjdHRvbGVyYW5jZT0iMTAiIGdyaWR0b2xlcmFuY2U9IjEwIiBndWlkZXRvbGVyYW5jZT0iMTAiIGlua3NjYXBlOnBhZ2VvcGFjaXR5PSIwIiBpbmtzY2FwZTpwYWdlc2hhZG93PSIyIiBpbmtzY2FwZTp3aW5kb3ctd2lkdGg9IjE5MjAiIGlua3NjYXBlOndpbmRvdy1oZWlnaHQ9IjEwMTciIGlkPSJuYW1lZHZpZXc2MDg3MyIgc2hvd2dyaWQ9ImZhbHNlIiBmaXQtbWFyZ2luLXRvcD0iMCIgZml0LW1hcmdpbi1sZWZ0PSIwIiBmaXQtbWFyZ2luLXJpZ2h0PSIwIiBmaXQtbWFyZ2luLWJvdHRvbT0iMCIgaW5rc2NhcGU6em9vbT0iMS4wMzAzMDMiIGlua3NjYXBlOmN4PSItMjUuMjI1MDA2IiBpbmtzY2FwZTpjeT0iLTE5Mi4wNCIgaW5rc2NhcGU6d2luZG93LXg9Ii04IiBpbmtzY2FwZTp3aW5kb3cteT0iLTgiIGlua3NjYXBlOndpbmRvdy1tYXhpbWl6ZWQ9IjEiIGlua3NjYXBlOmN1cnJlbnQtbGF5ZXI9IkxheWVyXzEiLz4mI3hhOyYjeGE7PGcgaWQ9Imc2MDg3MCIgdHJhbnNmb3JtPSJ0cmFuc2xhdGUoLTMyMi42MDAwMSwtMTkyLjc2KSI+JiN4YTsJPGRlZnMgaWQ9ImRlZnM2MDg1NSI+JiN4YTsJCTxyZWN0IGlkPSJTVkdJRF8zXyIgeD0iMzIyLjYwMDAxIiB5PSIxOTIuNzU5OTkiIHdpZHRoPSIzNi44MiIgaGVpZ2h0PSIzNi44MiIvPiYjeGE7CTwvZGVmcz4mI3hhOwk8Y2xpcFBhdGggaWQ9IlNWR0lEXzRfIj4mI3hhOwkJPHVzZSB4bGluazpocmVmPSIjU1ZHSURfM18iIHN0eWxlPSJvdmVyZmxvdzp2aXNpYmxlIiBpZD0idXNlNjA4NTciIHg9IjAiIHk9IjAiIHdpZHRoPSIxMDAlIiBoZWlnaHQ9IjEwMCUiLz4mI3hhOwk8L2NsaXBQYXRoPiYjeGE7CTxnIGNsaXAtcGF0aD0idXJsKCNTVkdJRF80XykiIGlkPSJnNjA4NjgiPiYjeGE7CQk8ZGVmcyBpZD0iZGVmczYwODYxIj4mI3hhOwkJCTxyZWN0IGlkPSJTVkdJRF81XyIgeD0iMzIyLjYwMDAxIiB5PSIxOTIuNzU5OTkiIHdpZHRoPSIzNi44MiIgaGVpZ2h0PSIzNi44MiIvPiYjeGE7CQk8L2RlZnM+JiN4YTsJCTxjbGlwUGF0aCBpZD0iU1ZHSURfNl8iPiYjeGE7CQkJPHVzZSB4bGluazpocmVmPSIjU1ZHSURfNV8iIHN0eWxlPSJvdmVyZmxvdzp2aXNpYmxlIiBpZD0idXNlNjA4NjMiIHg9IjAiIHk9IjAiIHdpZHRoPSIxMDAlIiBoZWlnaHQ9IjEwMCUiLz4mI3hhOwkJPC9jbGlwUGF0aD4mI3hhOwkJPHBhdGggc3R5bGU9ImZpbGw6I2ViNjAyMiIgZD0ibSAzNTEuMzUsMjE5LjM2IGMgMCwxLjIgLTAuOTYsMi4xNiAtMi4xNiwyLjE2IGggLTIuODggYyAtMS4yLDAgLTIuMTYsLTAuOTYgLTIuMTYsLTIuMTYgdiAtMi44OCBjIDAsLTEuMiAwLjk2LC0yLjE2IDIuMTYsLTIuMTYgaCAyLjg4IGMgMS4yLDAgMi4xNiwwLjk2IDIuMTYsMi4xNiB6IG0gNS43NSwtMTIuMjIgaCAtMTEuNSBjIC0wLjc4LDAgLTEuNDQsLTAuNjYgLTEuNDQsLTEuNDQgdiAtMTEuNSBjIDAsLTAuNzggLTAuNjYsLTEuNDQgLTEuNDQsLTEuNDQgaCAtNC4zMSBjIC0wLjc4LDAgLTEuNDQsMC42NiAtMS40NCwxLjQ0IHYgMTEuNSBjIDAsMC43OCAtMC42NiwxLjQ0IC0xLjQ0LDEuNDQgaCAtNC4zMSBjIC0wLjc4LDAgLTEuNDQsLTAuNjYgLTEuNDQsLTEuNDQgdiAtMTEuNSBjIDAsLTAuNzggLTAuNjYsLTEuNDQgLTEuNDQsLTEuNDQgaCAtNC4zMSBjIC0wLjc4LDAgLTEuNDQsMC42NiAtMS40NCwxLjQ0IHYgMzMuMDcgYyAwLDAuNzggMC42NiwxLjQ0IDEuNDQsMS40NCBoIDMzLjA3IGMgMC43OCwwIDEuNDQsLTAuNjYgMS40NCwtMS40NCB2IC0xOC42OSBjIDAsLTAuNzkgLTAuNjYsLTEuNDQgLTEuNDQsLTEuNDQiIGNsaXAtcGF0aD0idXJsKCNTVkdJRF82XykiIGlkPSJwYXRoNjA4NjYiIGlua3NjYXBlOmNvbm5lY3Rvci1jdXJ2YXR1cmU9IjAiLz4mI3hhOwk8L2c+JiN4YTs8L2c+JiN4YTs8L3N2Zz4=;" parent="7zQmasY0ehKp1lRE09yj-14" vertex="1">
          <mxGeometry x="180" y="162.29999999999998" width="90.62" height="90.62" as="geometry" />
        </mxCell>
        <mxCell id="jJKIp3TA7QiN44hz8N-b-17" value="" style="edgeStyle=orthogonalEdgeStyle;rounded=0;orthogonalLoop=1;jettySize=auto;html=1;strokeColor=#FFFFFF;" parent="7zQmasY0ehKp1lRE09yj-14" source="jJKIp3TA7QiN44hz8N-b-6" target="jJKIp3TA7QiN44hz8N-b-2" edge="1">
          <mxGeometry relative="1" as="geometry" />
        </mxCell>
        <mxCell id="jJKIp3TA7QiN44hz8N-b-6" value="API" style="shape=image;verticalLabelPosition=bottom;labelBackgroundColor=default;verticalAlign=top;aspect=fixed;imageAspect=0;image=data:image/png,iVBORw0KGgoAAAANSUhEUgAAAJAAAACQCAYAAADnRuK4AAAACXBIWXMAAAsTAAALEwEAmpwYAAAZ40lEQVR4nO1dCbjUVJYOODM9M+3sPcNoP17OTfKqHg947PvyUHZFUFZFEBHZEQUBZZFNUUARQVBREXfZFVdUBFkEBRVpxR0Fd1rbVltQXLj9/SGpupWXVCVVqUq9Mv/3nU8fVUlu7j117tmvJIUIESJEiBAhQoQIESJEiBAhQoQIESJEiBAhQoQIESJEiBAhQoQIESLEbxPVpMLGSUEPoKBBRHcoitJTKkAwxnoT0fKgx1HQIKJ3GWOcMXZ3NBr9N6kAUKNGjd8zxlbgvYjonaDHU7DQNO13jLFfDAbCZL/HGGsqVWGoqlqbMbbffCe8X1lZ2T8FPa6CRHFxcZkw0SYT/cwYm1kVdQciuoAx9r3NO0WDHltBgoi6WyebxSd9UyQS+YNUBXDKKaf8K2PsXqd3YYx1C3qMBQnG2OXmJJ/Wup7dxH/AGCuX8hg1a9Y8lYj2WMfeunnd2P/LsnxZ0OMsSDDGlpmTPGrQaU6S6FsiqpDyELIs12KMfWI37qEDKsR3WBr0WAsSRPSMOck3X90rYQFURRH/PkpEnaU8AhHVI6I/O21bC6afLf79ZNDjLUgQ0RvmJL+4YTRX1QSm4Zqmin9DOW0i5QFUVdVE5lESmV3/e+ua4eK/vRb0mAsSjLG/mJP83f5pvHuXJpV+ySUCExHRF9A5ghxzUVHRfwu+q0pMD+rSviH/et8UcdyHgxxzIfuAjmOCS6Ma5wdnW8U+j0kiYZGw7QUZ/mCMrXSSPCbNndKdH/9wlsj8vzZq1OgfgxpzQUKWZTInvEXT2joDvfLEGCcz2LpF9A9izETUw834dj48Un+fZo1rC9uxVhTEmAsWqqo2Mif3rM6N9Qn/5cBMnZlcLNJ+SZKq53jI1aDLpBpbk4Zl/Kf3Z+rvc0aHRqLkrJfj8RY2ZFluZ07uBX1a6xMOuuXa3q6kEBF1srtvWVnZyVC24aQkouFENIMxNtegeYbrYL7x9xQimkBEAzEeWZZLnbYaxlgHN+O6aeY5sXc5v1dLUWq2zvqk/pbAGDvLnNyRg9rFJv3rfVN4rdISN0y00LhPDcbYECK6jzH2phhbS4eI6BgRvYwsAYQmNE37X+M5C1NdG41o/Mu9k2PvMnxgu9hnsix3CXrOCwrQY8zJHT+8Q2zS+cHZ/OqJ3dws9meMsV1QUDNhGBeE++80npf0u9PHnZHwHpde3F78vE/Qc15QIKJh5uROu7RrwsR//9ZVvGXTOmktOCyfti3Lef+eLfnEkZ14KyGkYEfldaJ83LAOvE/35rr+ZWeWu6Gmjcr4t29MS3iPK8d0FiXQhUHPeUFBUZSR5uReM6lbwsTzg7P5llXDXC1mpETVdagl1/Tiex4bzY+9NyPhPrseGZn0ejCZ+P0jb03nL6wfyRfN6skH9G6V4IdyIpjzG+8bUukdZk04U/zekKDnvGAZaM4VZ1WafH5wNl9+Qz/HRUPwdeXSAfyb16faXivSeefElVkrrbltYNJroZM9cHN/3r5tfcd73HpdH9trZyduxRcHPecFBcbYqGQSiBt0z8LzuKYpMRO5b/fm/OUnxqRkGrdS6OMXJ7m+z2sbx/Jzz24R8+8g1HLn9f0cvy8yEBENDXrOC5aBoDQnW7h3nx/PH18xOOZfSYfspFCbFnXTutfPB2byp+4dwt/ePC7p98QtLGQg/xloiDm5mOh0GYNnIIWs+o/fBKtMYKALpALHSXCkwUNcXFzMsu3plWX5XHNyYa1km4G4jRRKpf9kShNGdBStsHOkQgQSvoloDhF9Y/mFIn3iScbYRUjZ9Pu5iqKcaT5r7JD2OWGgXRYp5EX/SYfgIBWe10GqCqioqPgHI1AJd35nOLBAsix3VRSlPSSMpmkqPLiapv07ET3mws/xNRHdWFxcrPg1TmQZmvcf0r9t2ov09uZxusk9bECFbnZPGtWJb3pwaEoplK7+44UG9W0tSqDmUr6mRRi/5puIaAdj7Eg6jjA3REQ/Io4Exst03Iqi1DXv26tbM8+Ls+ex0bxvj+b69fAXdaioz3uf1Uy31PBvWLyjb093lELZ1n9AlvymiJRPUBTl/4joOjEpK1eExK5MPaunnnrq/5j3q2hV7npRjr03Q1dO4bxrWL9U9xV9vS/uC0JE/64b+umfWz3cohTKtv4DaiF40xHklfIE1Y0I8rdJFvgQEb3EGNvIGFuN/xLRswgSMsb2MsYOgAl8YKb1yNDLID3iB9wHwVM3C3Lkrem61AFzgImSORFnjD9D9x99vucKWymUbf1HTCgjou+kfAAiw4yxzTYL+TkR3QBFze2CKopS7JM0OqQoSqt03sco29Hv48ajvH3tCF5Wq4Q/ePP5Kb8L3xHue//i/r4xBfw/h1+5kr+zZTz/dHdlxhTpq9cSUlqDL2+GYizm4hoD+5Msy2dDcfZ6P+QW+6kbEVE/r2NgjG0x7/H6M5e6WsSv901xveCN6tfiU8fab2Nu6dDOiXqqbbdOjWMecdBNs3omvc6SXfm0FLTksTDPL0iUyrD8txqSvX3UjY4bJcmuwRi71bx+w/JBvm8jnU9voOfkpHMtMgKgQ4FpoKRDIUauM+JvCJyCsZJdv/72QeLcLJICxEmMsa3CYI5C6vhxY8bY1T5JoGPQtbxuZajYNO9RvzzKb722d6WUiEyo55nN+IX92ni+DtsP0lHBOJeP6Mg/s9GjktHne65MyEZkjI2WggLSLi2Sp4df9y4qKvoXB53KLX0KSSjL8v+n83xk6VnvWbd2RA9tfPJS5kpuu9bleq6Pl2t+/WCWnhtUuyzCt60d7sk6fOLui3SflqWeDUp/e7/WzOsEk2mpGDTV72cgB5iIphHRly4YBumiu4joKkVRGmca7oArwulZqqroiwF/T7oMVKcskjJQ67T14L9uvg9lfd7UHrpLweld4LKQggBj7CFhILuy2fJEluV/VhTldEVRriSim43k82VEdC1EMD4rLi7+L7+fCytOzOob0LsVnzK2i+7L2bFuBP/i5SuTLiDMcZjlVtq8cph+z8ljOtt+bkcox2neuDY/vU09/f+tn9uZ/rAeYQBA+mALxtiR8iHUjAVTVGiEG8x83+OqqraUChBEtNZkIJjp3KOUgTXkoyGQlFJZXiY9+8DF4nWrg5rYGwUl9VGp8HAStkG8m/meMJe5RwZykkDQfVSV8edXDXMtgaaP66qP4/G7B9t+7tb5KOYBBdXaBZbXV1UukpsC6PWDnkAI4NpE/3XRzzNUnE3q16MF79G1iadroC9Bic/02R3bNRAV6Do5n2iYw4L0OVRVW+FCQYcFAj8IY+zDVFsEXP/f7c/cjEf4ApaQWOTnhi4b2j7jKD2eLazd4UDWjjE2W5jYZVLVAhyUbVGYhzSQZAzTsrHCxw/SePf2cQ9vRctyfQuAUpquTwhJ7lBiUzn7rIT6NK8MBCUaliLCKxh3p9Pi0ocx9kggK8AY2yCIwPOkKgD0zDEck46Spl4dhY/pr/LV8yL80GNRzneX6vTowohtuc7wge34ge2Xp+WBxhbm9ToEaOvVjXq6BkwKixGpJDZlSL0DWQyj3W1VKMqvbpQob3SqEG3dVOHXjNH4zhVR/vOuEwxjpe+3lfLSSNz/s2xuH90bnI70MfN9Vt3iPV0DjIBrxfJkL/TJi5N4NBpzIv6CftGBrIqYFJaPzbeNTMZJTtKmThnj00do/OX7ovz4S/ZMY6WLesa9t4/ceWHaOghCCPAn/fBO5WSyVATfT7ruBNDaZReI8/BwUOtzkjCI4/mkQBtB3WsYY39Nptv0P0t1xTQiPbow3lBhYJ9WaS0gdBFcv3ROL103QUwKW4yV3t92ue78s9IL60bo11872b7Q0UvSfmBJ9EbPYXP7+lHKAyDWhZRZt+my8L98+mRcx3FDP+0s5Q3LT+gQ2Ma8BjBBUID9cBgiDcTz9vXSpJgOBOsryI5k1UR9Isg2+Yqi/IchcSp1X09FSyeXeJZCM0ZqsetR6+51EVEije6uaJKw5OpeumVk0rplF+iWnZWQmoGQyfrbL9CbMoAJkLbh9dlI7Bd++AukICE62RBwDCJRH2mzFmfmCZ0s4q57xWktFFf6z64VkRitX1DCFeXE9fXrRvnWNcm9yHYL+eKGUbxxg1q8Qb1S19F0N9ckG8e2NcP1a413/xWta4yGVToFwUCvB1UOgvIfa+YjCL6a526L8KPbS/lNk0piVlMy2vtAJCUDZbLVcAeGwPaHBDA4ExHgRH6y03chnZA01rV9w6R+o0zGKeUaRLRGkECDc/FM1HyJ/icrPbE4kRngxxnSK3nrk2nDVE8SCHTnjLgy3ah+Kd++drgnCWTSj+/O0JPBcJ8xF53Oj7x1lePnl9h87lYCQfqIqRxEdIkofYKSQOjrZw7qtmw+C/nURHQFMh2TMUPbZgo/9kJlBth0a4RXNLff1urXsb8mFZ17Zpwx3STQJyM7CQMJhcaebiRUKrpvUX+ReZ6V8gGWho5vZfE55US0260oXjbNXjH+YYfztvakRXK5oZ0rIgmHltgVCHohUce5fX5fzzqSEx2xdFLLm5QbmPJGnrE+MKPZgd9ZiHOMs7liE9ChtaJvI2+uifIpQ7VKDFGnFuNfPutsnttta/jbKwPx3aV80Nnx+1w/rUdGC21KHfMEHTgaD74wIeN7IhMxb1NuGGNPCYOb6Nd90YHDKDCMvTwYBRLEut38+Zmo/u8N6iqe9BpxW9NUpt/HrQ60y6C115fo1+r30BS+dtlATzqQk77TtkW5o17kRQdaf8cgsXAQP8QBVt0nMB0IQEs0nw/rqGY0dUpwBp5/lsoPPprc6XdkWyl/8NoS3r6Voi/qO+tSOwnFbW35jJKcWmHcInms+g70Iix+KsurylphABKxjWYG+iAy4WTDIbjO+mKN67vz1Zj0y4uluk6zaJLm+hpsawsu1zxLoF0rIvz5ZRHerGF8vHDweZFAyfw7Xv1F4nMxDmF3+BhdUJykT2ASCCCiB4UF35DOPWRZbiBG96307nrvSm4u6eX7orGtDKU2720d70pi3D6vry51kkmZj3ZN1Ou/8D183819P9wxQa/2MOYPEYM2Ur4CiVnCYv+KnJs02siJZUExT69J2GaCZpJUdPWYuG8IuT5uIu1IgHfj34F+hE5ii2enTpjHd8/sGD//gjF2vZTvMLpsmOJyiYeIPs6CiL1s3TLGH7kxonuHT2+pJFheQTNIKjq6PZowZqe2LSJB1/Hi33Hz3cmXxBuHw72Cwkwp34EyZoGBjqWSQsaBaM+KzNOpjcIPPZao4M67rESPmqfaxn59MXgG4rtL+Vtro7x2rTgTrVhwrmvm8IPQ5UNYh7+hQZZURYCsv1fc5Nkalaxvi8xzcW+V/22r/aJsvzPCWzRy3sbg82nVROE3TdT45xu9pWdkgzYuiQdbETW36w6fDULLPKFc+XiVO/cCipp5up9TrbWqqrVhEYjMM2uUllKC/HVzlC++wt5Kun9O3CPcv1t+bHULJ8b1IfQK2vvUJVllHrRpEU8PQlm3VBXBGFslMMd+sScQIvZi6kU0wvi6GzJXjs/rFvcG33t1fijbx18q5SP6xceFJPhXnxyTNebBYSzCvK/KpwxRTyAiWQx4Il8H/64oSk/R0mraQOH7Hsp8u4Hz0DSfsW18kQdbGBeyF8Ucapj35jGTftHuR0eL5jpoI/KkpKoMsV4MTkZFUa4S41ltmir8wxReZbcE/ci8b8c8tNR+2FGqb6siE+GEHz+Y57mHhurbozDXz6D5hFTVgZcQk81E6txW8VVK3DghPoFTh7n3POeSjmyL8n5nxCURFF2U5mTCPDg8xdLfZ0s2Gq0HBqMhQcKxjj06KPzr5/xdnAvPiU8iAptBMwtP4iMa3jeeSw2Cv8ZrWQ++jybl4n3QOaRK+Hq8gDE2zip9tt/pv35S0Tx+/9cezB/9hzvE6MSEfH3bbdcg5Wk6JiE8gpCHZV4XBXAydO6ZB9SkvuKrnwZKqqlAg757Pngm4S5o+QyNl2jxcUOPuWN+X735uB3j/HJgFr/tuj5WM/0nxtgYqdCA86ZEX1CfLiqvXRqfrN5dFMfSYa904JG46dqsYf4p0DxF8BXOUfEHhgR7a6s8WFlI87BsWR/JstxCKjTg/HOReQZ0V3Ur5KmbIwnB0ZkjNd8tsDPaVS0G4rtL+V82leoeeKukxoEsz68exocOqKj0GWPsI/OI74ICEXUXz0Lv01XRfTTmZM0fl7j3r5mfucL7+KI4A/Xtml5Kaj7QE4sjvGG5fRqLA/nexDRQKIrSWnQSYpsSmcdUIEWLCTrAjuWZ5fismhfXCeCwC5oReAaEUA1COqJOB0IgGb2JJl2U8AM8HlhLFr8hy3It8SSeTm1U/s0We0UZ/y5aTeW1GX97bfpK9cq5cQYae37VZiBuEOZj5LmqzkijzlNjabn4AVoKAY5WeT2ouLj4FLF1SotGCv/sqeQMgZQMMfkdiqRomSGGdPjpKP/Tyih/ZmmE3z27hF8/XtPTOkBXDdf0SgzQIEGind1R4U8vLeGvPhBJmhxfVejo9srvgGyFBnUTlOnDfh6ul1OgHxBj7NV0pMmee6MJpThIxZg+XNW3vlpRT7qAI+H+CG0M7qnqFRpgxJfuiVQZU5/b0MMLKndIQ1pMBkdZBXoW2GNiVB1Fdm4nAlJq4mCtUtpqrgilPCP6aXrSPeronbbcfKI3VkV4Wal9ZS0RbatSAVRLc039l+FmElCHBWvJzDD0mY6gVt84TvOgWPCYijCeLhWK3q0MfRDzISmNWxLm0OhTHHOLxkrCDxCFDVUihcNIXY35euZemtocf+GuCO/ZybHBQUK8LBOynvWAA3uNTqzwTy0mok2Msc/c3As19pMv1vTsQvRGDIp5ft4Vr8GHgYKsTDO195YpcSPCYKI5Ur5bXOIRltAvYB04vTyi7viOjchFasd6nMmOPobWxPoMqKOb98BZGkTUyWgOsTHZsZymy6F/N1WvuXdTrMh9JOhuJ5jG/rlgcst4L5byESj6E/OYUf2ZTCGF99lsBScwznc4FEVV1ZrJjkzIgGal+XrVkXxORMMYY/cwxj5J9hwo/TNHarpSHnQyP1Jnxa4j+HGigFDKN0BiiBYX4lBOL4W2cRYF+VciuiVFFzM0/l6SIQO94tf7Ggw1wagcSahZE6lpA0V3LcCISCaNs0GQTOY4mjRIYCJI1HIpX4BjlMRJg3SxeyH4cOBNtUidQx7KZqsZxw2ky0DH/e4QAiBRS1GUMzA2Inrf6fmN651IagMzZVsyicwT/2EnMNHHRUVFf5SCBhqIi7/AZIFQmMUW5tkky/J/pvHMKzJgorlSliHLcn2jqefbyba5G8Zr/IMN0awzj6lcP3NLRN8dhM/2Btq/Gx3MGWNviv0HnTp5wfy1mJXrMvFNWI7QdE040bCsrOxkKUdQFKWu4daIzZOVenVW+f1zSnzxN5nMY7XIRIs3UpLw/KfSOS3bFxDRclHvEc+NsDoGUZIsLOKzfgwaCVNORxNkSZnOCKqq1saJ0IyxA3bjgsN19Hkq33pHelscovbJLDKTUCpl0UFzfxAOOpiLL79hobOzUDTV0WHDT9c6qivF9jEu6XtDAb4FJ/ExxlaiJzLcBjlqR1yNiCoYYytQXmw3RlhOt07V+FebsqMjWdUJxthkKVeIRCJ/IKIv3ES6tyxLiM9k5chLYzGSHlvggaDPLcI7SjlAWVnZybIsX2gciR5zwJqE7WbsAE3vM+SlB1Iqwr0mDk7wweHZA3LxzvjVrzQfDBd6sr0bAVBB+tyVrTHhRD2EKHxiItAHuY5kF59oUTzL6T3QgQT50t/6FJuDF3tgj4Td4VjWT5VEopL5QOyjOP4oWVRdGNxPNWvWPDWbY8P2Y8S6/GKivQEFIaszxroZ/SUr6Xi1a52wdlO19HNDSAHpWpHoI8ra0VyGi/+w+bBpKQr1kCYhDOx+KXfHG9zlIxPlRqw7QFGUEsbYQrstGkHeYX1VfXvLhIk+31iq52oJ9/5UUZRiyW8Q0VJx63JqtwKC1xVlOnFppbSWcggciutTIPZpKQ9Qo0aN3yOUQkT77MbZ7XRVt65QypRu3yKLj2g/BIZvL6CqaiNxQTYvS871aIwgDOYrdBuTcgx4h+1OVfZIH0r52TJwlVH7VSl0smRySVp6EtQRi49oq1+19NXFFnXIxU01GLEnj5GLEtgW4PSrdUMIPkp5iqKioj8yxubbZQvA74ZUGq/puzYOX6S4LIavCF58IroU59+i6anrs8SMfBn9hsh6c3MI26SL1MAPrTeBunD4XNJlIinPoZxof3yFXS4TUnehqzo5ee3o9qsqx9Ec6IgRRO/lWD4Nf4hYVQHx6GYQyCwUGKhLzmf1NwhN035nNHavFINDFcdlA1XXeemzR1dyNKaiN+GPqzQoQ3TpX2rXwv2pNcgHig1e09RAZvS3i+pGZuhO60Jje0K1a6pGEwil3DZN47dOLdHVEXjFQdgWceQ5ejjZMBF05HGxURBRVGz8hARzt2IQZ6ub11lTSUPkti+lUeBQycuNYkuUR6VjtYHQMRclVRbr7TgRDTQfvjpDC0angmpsVEWhnEiAW2tlJEgkFCS+vip9RkKwXFRZoPLoQsOOa9NUQgurP02BMtLQPqpeHpQOEyF9WWyiDqVe8oN5DAbKuQ8ohKtD+mwZCd7t/au9M9LqeQmum20phhCiEKCeyFG6N828KkdCtkbQ7xYi9xJpnV9qCyyyXI4/RAEyUtDvEiJEiBAhQoQIESJEiBAhQoQIESJEiBAhQoQIESJEiBAhQoQIESJEiBAhQoQIESJEiBAhQoQIESJEiBAhJE/4Oy1S5XJMQmfXAAAAAElFTkSuQmCC;" parent="7zQmasY0ehKp1lRE09yj-14" vertex="1">
          <mxGeometry y="164.17" width="88.75" height="88.75" as="geometry" />
        </mxCell>
        <mxCell id="jJKIp3TA7QiN44hz8N-b-9" value="Daemon" style="shape=image;verticalLabelPosition=bottom;labelBackgroundColor=default;verticalAlign=top;aspect=fixed;imageAspect=0;image=data:image/png,iVBORw0KGgoAAAANSUhEUgAAAJAAAACQCAYAAADnRuK4AAAACXBIWXMAAAsTAAALEwEAmpwYAAAZ40lEQVR4nO1dCbjUVJYOODM9M+3sPcNoP17OTfKqHg947PvyUHZFUFZFEBHZEQUBZZFNUUARQVBREXfZFVdUBFkEBRVpxR0Fd1rbVltQXLj9/SGpupWXVCVVqUq9Mv/3nU8fVUlu7j117tmvJIUIESJEiBAhQoQIESJEiBAhQoQIESJEiBAhQoQIESJEiBAhQoQIESLEbxPVpMLGSUEPoKBBRHcoitJTKkAwxnoT0fKgx1HQIKJ3GWOcMXZ3NBr9N6kAUKNGjd8zxlbgvYjonaDHU7DQNO13jLFfDAbCZL/HGGsqVWGoqlqbMbbffCe8X1lZ2T8FPa6CRHFxcZkw0SYT/cwYm1kVdQciuoAx9r3NO0WDHltBgoi6WyebxSd9UyQS+YNUBXDKKaf8K2PsXqd3YYx1C3qMBQnG2OXmJJ/Wup7dxH/AGCuX8hg1a9Y8lYj2WMfeunnd2P/LsnxZ0OMsSDDGlpmTPGrQaU6S6FsiqpDyELIs12KMfWI37qEDKsR3WBr0WAsSRPSMOck3X90rYQFURRH/PkpEnaU8AhHVI6I/O21bC6afLf79ZNDjLUgQ0RvmJL+4YTRX1QSm4Zqmin9DOW0i5QFUVdVE5lESmV3/e+ua4eK/vRb0mAsSjLG/mJP83f5pvHuXJpV+ySUCExHRF9A5ghxzUVHRfwu+q0pMD+rSviH/et8UcdyHgxxzIfuAjmOCS6Ma5wdnW8U+j0kiYZGw7QUZ/mCMrXSSPCbNndKdH/9wlsj8vzZq1OgfgxpzQUKWZTInvEXT2joDvfLEGCcz2LpF9A9izETUw834dj48Un+fZo1rC9uxVhTEmAsWqqo2Mif3rM6N9Qn/5cBMnZlcLNJ+SZKq53jI1aDLpBpbk4Zl/Kf3Z+rvc0aHRqLkrJfj8RY2ZFluZ07uBX1a6xMOuuXa3q6kEBF1srtvWVnZyVC24aQkouFENIMxNtegeYbrYL7x9xQimkBEAzEeWZZLnbYaxlgHN+O6aeY5sXc5v1dLUWq2zvqk/pbAGDvLnNyRg9rFJv3rfVN4rdISN0y00LhPDcbYECK6jzH2phhbS4eI6BgRvYwsAYQmNE37X+M5C1NdG41o/Mu9k2PvMnxgu9hnsix3CXrOCwrQY8zJHT+8Q2zS+cHZ/OqJ3dws9meMsV1QUDNhGBeE++80npf0u9PHnZHwHpde3F78vE/Qc15QIKJh5uROu7RrwsR//9ZVvGXTOmktOCyfti3Lef+eLfnEkZ14KyGkYEfldaJ83LAOvE/35rr+ZWeWu6Gmjcr4t29MS3iPK8d0FiXQhUHPeUFBUZSR5uReM6lbwsTzg7P5llXDXC1mpETVdagl1/Tiex4bzY+9NyPhPrseGZn0ejCZ+P0jb03nL6wfyRfN6skH9G6V4IdyIpjzG+8bUukdZk04U/zekKDnvGAZaM4VZ1WafH5wNl9+Qz/HRUPwdeXSAfyb16faXivSeefElVkrrbltYNJroZM9cHN/3r5tfcd73HpdH9trZyduxRcHPecFBcbYqGQSiBt0z8LzuKYpMRO5b/fm/OUnxqRkGrdS6OMXJ7m+z2sbx/Jzz24R8+8g1HLn9f0cvy8yEBENDXrOC5aBoDQnW7h3nx/PH18xOOZfSYfspFCbFnXTutfPB2byp+4dwt/ePC7p98QtLGQg/xloiDm5mOh0GYNnIIWs+o/fBKtMYKALpALHSXCkwUNcXFzMsu3plWX5XHNyYa1km4G4jRRKpf9kShNGdBStsHOkQgQSvoloDhF9Y/mFIn3iScbYRUjZ9Pu5iqKcaT5r7JD2OWGgXRYp5EX/SYfgIBWe10GqCqioqPgHI1AJd35nOLBAsix3VRSlPSSMpmkqPLiapv07ET3mws/xNRHdWFxcrPg1TmQZmvcf0r9t2ov09uZxusk9bECFbnZPGtWJb3pwaEoplK7+44UG9W0tSqDmUr6mRRi/5puIaAdj7Eg6jjA3REQ/Io4Exst03Iqi1DXv26tbM8+Ls+ex0bxvj+b69fAXdaioz3uf1Uy31PBvWLyjb093lELZ1n9AlvymiJRPUBTl/4joOjEpK1eExK5MPaunnnrq/5j3q2hV7npRjr03Q1dO4bxrWL9U9xV9vS/uC0JE/64b+umfWz3cohTKtv4DaiF40xHklfIE1Y0I8rdJFvgQEb3EGNvIGFuN/xLRswgSMsb2MsYOgAl8YKb1yNDLID3iB9wHwVM3C3Lkrem61AFzgImSORFnjD9D9x99vucKWymUbf1HTCgjou+kfAAiw4yxzTYL+TkR3QBFze2CKopS7JM0OqQoSqt03sco29Hv48ajvH3tCF5Wq4Q/ePP5Kb8L3xHue//i/r4xBfw/h1+5kr+zZTz/dHdlxhTpq9cSUlqDL2+GYizm4hoD+5Msy2dDcfZ6P+QW+6kbEVE/r2NgjG0x7/H6M5e6WsSv901xveCN6tfiU8fab2Nu6dDOiXqqbbdOjWMecdBNs3omvc6SXfm0FLTksTDPL0iUyrD8txqSvX3UjY4bJcmuwRi71bx+w/JBvm8jnU9voOfkpHMtMgKgQ4FpoKRDIUauM+JvCJyCsZJdv/72QeLcLJICxEmMsa3CYI5C6vhxY8bY1T5JoGPQtbxuZajYNO9RvzzKb722d6WUiEyo55nN+IX92ni+DtsP0lHBOJeP6Mg/s9GjktHne65MyEZkjI2WggLSLi2Sp4df9y4qKvoXB53KLX0KSSjL8v+n83xk6VnvWbd2RA9tfPJS5kpuu9bleq6Pl2t+/WCWnhtUuyzCt60d7sk6fOLui3SflqWeDUp/e7/WzOsEk2mpGDTV72cgB5iIphHRly4YBumiu4joKkVRGmca7oArwulZqqroiwF/T7oMVKcskjJQ67T14L9uvg9lfd7UHrpLweld4LKQggBj7CFhILuy2fJEluV/VhTldEVRriSim43k82VEdC1EMD4rLi7+L7+fCytOzOob0LsVnzK2i+7L2bFuBP/i5SuTLiDMcZjlVtq8cph+z8ljOtt+bkcox2neuDY/vU09/f+tn9uZ/rAeYQBA+mALxtiR8iHUjAVTVGiEG8x83+OqqraUChBEtNZkIJjp3KOUgTXkoyGQlFJZXiY9+8DF4nWrg5rYGwUl9VGp8HAStkG8m/meMJe5RwZykkDQfVSV8edXDXMtgaaP66qP4/G7B9t+7tb5KOYBBdXaBZbXV1UukpsC6PWDnkAI4NpE/3XRzzNUnE3q16MF79G1iadroC9Bic/02R3bNRAV6Do5n2iYw4L0OVRVW+FCQYcFAj8IY+zDVFsEXP/f7c/cjEf4ApaQWOTnhi4b2j7jKD2eLazd4UDWjjE2W5jYZVLVAhyUbVGYhzSQZAzTsrHCxw/SePf2cQ9vRctyfQuAUpquTwhJ7lBiUzn7rIT6NK8MBCUaliLCKxh3p9Pi0ocx9kggK8AY2yCIwPOkKgD0zDEck46Spl4dhY/pr/LV8yL80GNRzneX6vTowohtuc7wge34ge2Xp+WBxhbm9ToEaOvVjXq6BkwKixGpJDZlSL0DWQyj3W1VKMqvbpQob3SqEG3dVOHXjNH4zhVR/vOuEwxjpe+3lfLSSNz/s2xuH90bnI70MfN9Vt3iPV0DjIBrxfJkL/TJi5N4NBpzIv6CftGBrIqYFJaPzbeNTMZJTtKmThnj00do/OX7ovz4S/ZMY6WLesa9t4/ceWHaOghCCPAn/fBO5WSyVATfT7ruBNDaZReI8/BwUOtzkjCI4/mkQBtB3WsYY39Nptv0P0t1xTQiPbow3lBhYJ9WaS0gdBFcv3ROL103QUwKW4yV3t92ue78s9IL60bo11872b7Q0UvSfmBJ9EbPYXP7+lHKAyDWhZRZt+my8L98+mRcx3FDP+0s5Q3LT+gQ2Ma8BjBBUID9cBgiDcTz9vXSpJgOBOsryI5k1UR9Isg2+Yqi/IchcSp1X09FSyeXeJZCM0ZqsetR6+51EVEije6uaJKw5OpeumVk0rplF+iWnZWQmoGQyfrbL9CbMoAJkLbh9dlI7Bd++AukICE62RBwDCJRH2mzFmfmCZ0s4q57xWktFFf6z64VkRitX1DCFeXE9fXrRvnWNcm9yHYL+eKGUbxxg1q8Qb1S19F0N9ckG8e2NcP1a413/xWta4yGVToFwUCvB1UOgvIfa+YjCL6a526L8KPbS/lNk0piVlMy2vtAJCUDZbLVcAeGwPaHBDA4ExHgRH6y03chnZA01rV9w6R+o0zGKeUaRLRGkECDc/FM1HyJ/icrPbE4kRngxxnSK3nrk2nDVE8SCHTnjLgy3ah+Kd++drgnCWTSj+/O0JPBcJ8xF53Oj7x1lePnl9h87lYCQfqIqRxEdIkofYKSQOjrZw7qtmw+C/nURHQFMh2TMUPbZgo/9kJlBth0a4RXNLff1urXsb8mFZ17Zpwx3STQJyM7CQMJhcaebiRUKrpvUX+ReZ6V8gGWho5vZfE55US0260oXjbNXjH+YYfztvakRXK5oZ0rIgmHltgVCHohUce5fX5fzzqSEx2xdFLLm5QbmPJGnrE+MKPZgd9ZiHOMs7liE9ChtaJvI2+uifIpQ7VKDFGnFuNfPutsnttta/jbKwPx3aV80Nnx+1w/rUdGC21KHfMEHTgaD74wIeN7IhMxb1NuGGNPCYOb6Nd90YHDKDCMvTwYBRLEut38+Zmo/u8N6iqe9BpxW9NUpt/HrQ60y6C115fo1+r30BS+dtlATzqQk77TtkW5o17kRQdaf8cgsXAQP8QBVt0nMB0IQEs0nw/rqGY0dUpwBp5/lsoPPprc6XdkWyl/8NoS3r6Voi/qO+tSOwnFbW35jJKcWmHcInms+g70Iix+KsurylphABKxjWYG+iAy4WTDIbjO+mKN67vz1Zj0y4uluk6zaJLm+hpsawsu1zxLoF0rIvz5ZRHerGF8vHDweZFAyfw7Xv1F4nMxDmF3+BhdUJykT2ASCCCiB4UF35DOPWRZbiBG96307nrvSm4u6eX7orGtDKU2720d70pi3D6vry51kkmZj3ZN1Ou/8D183819P9wxQa/2MOYPEYM2Ur4CiVnCYv+KnJs02siJZUExT69J2GaCZpJUdPWYuG8IuT5uIu1IgHfj34F+hE5ii2enTpjHd8/sGD//gjF2vZTvMLpsmOJyiYeIPs6CiL1s3TLGH7kxonuHT2+pJFheQTNIKjq6PZowZqe2LSJB1/Hi33Hz3cmXxBuHw72Cwkwp34EyZoGBjqWSQsaBaM+KzNOpjcIPPZao4M67rESPmqfaxn59MXgG4rtL+Vtro7x2rTgTrVhwrmvm8IPQ5UNYh7+hQZZURYCsv1fc5Nkalaxvi8xzcW+V/22r/aJsvzPCWzRy3sbg82nVROE3TdT45xu9pWdkgzYuiQdbETW36w6fDULLPKFc+XiVO/cCipp5up9TrbWqqrVhEYjMM2uUllKC/HVzlC++wt5Kun9O3CPcv1t+bHULJ8b1IfQK2vvUJVllHrRpEU8PQlm3VBXBGFslMMd+sScQIvZi6kU0wvi6GzJXjs/rFvcG33t1fijbx18q5SP6xceFJPhXnxyTNebBYSzCvK/KpwxRTyAiWQx4Il8H/64oSk/R0mraQOH7Hsp8u4Hz0DSfsW18kQdbGBeyF8Ucapj35jGTftHuR0eL5jpoI/KkpKoMsV4MTkZFUa4S41ltmir8wxReZbcE/ci8b8c8tNR+2FGqb6siE+GEHz+Y57mHhurbozDXz6D5hFTVgZcQk81E6txW8VVK3DghPoFTh7n3POeSjmyL8n5nxCURFF2U5mTCPDg8xdLfZ0s2Gq0HBqMhQcKxjj06KPzr5/xdnAvPiU8iAptBMwtP4iMa3jeeSw2Cv8ZrWQ++jybl4n3QOaRK+Hq8gDE2zip9tt/pv35S0Tx+/9cezB/9hzvE6MSEfH3bbdcg5Wk6JiE8gpCHZV4XBXAydO6ZB9SkvuKrnwZKqqlAg757Pngm4S5o+QyNl2jxcUOPuWN+X735uB3j/HJgFr/tuj5WM/0nxtgYqdCA86ZEX1CfLiqvXRqfrN5dFMfSYa904JG46dqsYf4p0DxF8BXOUfEHhgR7a6s8WFlI87BsWR/JstxCKjTg/HOReQZ0V3Ur5KmbIwnB0ZkjNd8tsDPaVS0G4rtL+V82leoeeKukxoEsz68exocOqKj0GWPsI/OI74ICEXUXz0Lv01XRfTTmZM0fl7j3r5mfucL7+KI4A/Xtml5Kaj7QE4sjvGG5fRqLA/nexDRQKIrSWnQSYpsSmcdUIEWLCTrAjuWZ5fismhfXCeCwC5oReAaEUA1COqJOB0IgGb2JJl2U8AM8HlhLFr8hy3It8SSeTm1U/s0We0UZ/y5aTeW1GX97bfpK9cq5cQYae37VZiBuEOZj5LmqzkijzlNjabn4AVoKAY5WeT2ouLj4FLF1SotGCv/sqeQMgZQMMfkdiqRomSGGdPjpKP/Tyih/ZmmE3z27hF8/XtPTOkBXDdf0SgzQIEGind1R4U8vLeGvPhBJmhxfVejo9srvgGyFBnUTlOnDfh6ul1OgHxBj7NV0pMmee6MJpThIxZg+XNW3vlpRT7qAI+H+CG0M7qnqFRpgxJfuiVQZU5/b0MMLKndIQ1pMBkdZBXoW2GNiVB1Fdm4nAlJq4mCtUtpqrgilPCP6aXrSPeronbbcfKI3VkV4Wal9ZS0RbatSAVRLc039l+FmElCHBWvJzDD0mY6gVt84TvOgWPCYijCeLhWK3q0MfRDzISmNWxLm0OhTHHOLxkrCDxCFDVUihcNIXY35euZemtocf+GuCO/ZybHBQUK8LBOynvWAA3uNTqzwTy0mok2Msc/c3As19pMv1vTsQvRGDIp5ft4Vr8GHgYKsTDO195YpcSPCYKI5Ur5bXOIRltAvYB04vTyi7viOjchFasd6nMmOPobWxPoMqKOb98BZGkTUyWgOsTHZsZymy6F/N1WvuXdTrMh9JOhuJ5jG/rlgcst4L5byESj6E/OYUf2ZTCGF99lsBScwznc4FEVV1ZrJjkzIgGal+XrVkXxORMMYY/cwxj5J9hwo/TNHarpSHnQyP1Jnxa4j+HGigFDKN0BiiBYX4lBOL4W2cRYF+VciuiVFFzM0/l6SIQO94tf7Ggw1wagcSahZE6lpA0V3LcCISCaNs0GQTOY4mjRIYCJI1HIpX4BjlMRJg3SxeyH4cOBNtUidQx7KZqsZxw2ky0DH/e4QAiBRS1GUMzA2Inrf6fmN651IagMzZVsyicwT/2EnMNHHRUVFf5SCBhqIi7/AZIFQmMUW5tkky/J/pvHMKzJgorlSliHLcn2jqefbyba5G8Zr/IMN0awzj6lcP3NLRN8dhM/2Btq/Gx3MGWNviv0HnTp5wfy1mJXrMvFNWI7QdE040bCsrOxkKUdQFKWu4daIzZOVenVW+f1zSnzxN5nMY7XIRIs3UpLw/KfSOS3bFxDRclHvEc+NsDoGUZIsLOKzfgwaCVNORxNkSZnOCKqq1saJ0IyxA3bjgsN19Hkq33pHelscovbJLDKTUCpl0UFzfxAOOpiLL79hobOzUDTV0WHDT9c6qivF9jEu6XtDAb4FJ/ExxlaiJzLcBjlqR1yNiCoYYytQXmw3RlhOt07V+FebsqMjWdUJxthkKVeIRCJ/IKIv3ES6tyxLiM9k5chLYzGSHlvggaDPLcI7SjlAWVnZybIsX2gciR5zwJqE7WbsAE3vM+SlB1Iqwr0mDk7wweHZA3LxzvjVrzQfDBd6sr0bAVBB+tyVrTHhRD2EKHxiItAHuY5kF59oUTzL6T3QgQT50t/6FJuDF3tgj4Td4VjWT5VEopL5QOyjOP4oWVRdGNxPNWvWPDWbY8P2Y8S6/GKivQEFIaszxroZ/SUr6Xi1a52wdlO19HNDSAHpWpHoI8ra0VyGi/+w+bBpKQr1kCYhDOx+KXfHG9zlIxPlRqw7QFGUEsbYQrstGkHeYX1VfXvLhIk+31iq52oJ9/5UUZRiyW8Q0VJx63JqtwKC1xVlOnFppbSWcggciutTIPZpKQ9Qo0aN3yOUQkT77MbZ7XRVt65QypRu3yKLj2g/BIZvL6CqaiNxQTYvS871aIwgDOYrdBuTcgx4h+1OVfZIH0r52TJwlVH7VSl0smRySVp6EtQRi49oq1+19NXFFnXIxU01GLEnj5GLEtgW4PSrdUMIPkp5iqKioj8yxubbZQvA74ZUGq/puzYOX6S4LIavCF58IroU59+i6anrs8SMfBn9hsh6c3MI26SL1MAPrTeBunD4XNJlIinPoZxof3yFXS4TUnehqzo5ee3o9qsqx9Ec6IgRRO/lWD4Nf4hYVQHx6GYQyCwUGKhLzmf1NwhN035nNHavFINDFcdlA1XXeemzR1dyNKaiN+GPqzQoQ3TpX2rXwv2pNcgHig1e09RAZvS3i+pGZuhO60Jje0K1a6pGEwil3DZN47dOLdHVEXjFQdgWceQ5ejjZMBF05HGxURBRVGz8hARzt2IQZ6ub11lTSUPkti+lUeBQycuNYkuUR6VjtYHQMRclVRbr7TgRDTQfvjpDC0angmpsVEWhnEiAW2tlJEgkFCS+vip9RkKwXFRZoPLoQsOOa9NUQgurP02BMtLQPqpeHpQOEyF9WWyiDqVe8oN5DAbKuQ8ohKtD+mwZCd7t/au9M9LqeQmum20phhCiEKCeyFG6N828KkdCtkbQ7xYi9xJpnV9qCyyyXI4/RAEyUtDvEiJEiBAhQoQIESJEiBAhQoQIESJEiBAhQoQIESJEiBAhQoQIESJEiBAhQoQIESJEiBAhQoQIESJEiBAhJE/4Oy1S5XJMQmfXAAAAAElFTkSuQmCC;" parent="7zQmasY0ehKp1lRE09yj-14" vertex="1">
          <mxGeometry x="350" y="163.23999999999998" width="88.75" height="88.75" as="geometry" />
        </mxCell>
        <mxCell id="jJKIp3TA7QiN44hz8N-b-14" value="" style="edgeStyle=orthogonalEdgeStyle;rounded=0;orthogonalLoop=1;jettySize=auto;html=1;strokeColor=#FFFFFF;" parent="7zQmasY0ehKp1lRE09yj-14" source="jJKIp3TA7QiN44hz8N-b-6" target="jJKIp3TA7QiN44hz8N-b-2" edge="1">
          <mxGeometry relative="1" as="geometry" />
        </mxCell>
        <mxCell id="7zQmasY0ehKp1lRE09yj-15" value="" style="group;" vertex="1" connectable="0" parent="1">
          <mxGeometry x="420" y="50.84" width="200" height="429.15999999999997" as="geometry" />
        </mxCell>
        <mxCell id="7zQmasY0ehKp1lRE09yj-1" value="&lt;h1 style=&quot;margin-top: 0px;&quot;&gt;Service&lt;/h1&gt;" style="text;html=1;whiteSpace=wrap;overflow=hidden;rounded=0;fillColor=#bac8d3;strokeColor=#23445d;opacity=90;align=center;" vertex="1" parent="7zQmasY0ehKp1lRE09yj-15">
          <mxGeometry width="200" height="429.16" as="geometry" />
        </mxCell>
        <mxCell id="fR_icHqYHlOfDnI4W0Dl-4" value="" style="image;points=[];aspect=fixed;html=1;align=center;shadow=0;dashed=0;image=img/lib/allied_telesis/storage/Datacenter_Server_Half_Rack_ToR.svg;imageBackground=none;" parent="7zQmasY0ehKp1lRE09yj-15" vertex="1">
          <mxGeometry x="60.079999999999984" y="37.06999999999998" width="88.2" height="114.6" as="geometry" />
        </mxCell>
        <mxCell id="fR_icHqYHlOfDnI4W0Dl-5" value="" style="image;points=[];aspect=fixed;html=1;align=center;shadow=0;dashed=0;image=img/lib/allied_telesis/storage/Datacenter_Server_Half_Rack_ToR.svg;" parent="7zQmasY0ehKp1lRE09yj-15" vertex="1">
          <mxGeometry x="60.079999999999984" y="159.36999999999998" width="88.2" height="114.6" as="geometry" />
        </mxCell>
        <mxCell id="fR_icHqYHlOfDnI4W0Dl-6" value="" style="image;points=[];aspect=fixed;html=1;align=center;shadow=0;dashed=0;image=img/lib/allied_telesis/storage/Datacenter_Server_Half_Rack_ToR.svg;" parent="7zQmasY0ehKp1lRE09yj-15" vertex="1">
          <mxGeometry x="60.079999999999984" y="277.5" width="88.2" height="114.6" as="geometry" />
        </mxCell>
      </root>
    </mxGraphModel>
  </diagram>
</mxfile>
